***************************************************************************
If you've downloaded this torrent on any other website, that's alright, 
because that's what we're here for. However, don't forget to visit
 Cuelgame.net, the main website where we usually release everything.
***************************************************************************

///////////////////// PLOT SUMMARY AND DETAILS/////////////////////////////

Title : Moskva-Kassiopeya
Year : 1974
Country : Russia
Genre(s) : Family,Science Fiction
Director(s) : Richard Viktorov
Stars : Innokenti Smoktunovsky, Misha Yershov and Aleksandr Grigoryev
Plot : In this children's sci-fi adventure, a crew of adolescents are sent to a distant star within the constellation Cassiopeia in the hopes that by the time they arrive as adults. However, they reach their destination much sooner than expected, and various teenage problems get in the way.


///////////////////////////// OTHER DETAILS //////////////////////////////

Ripper : DiOS
Format : AVI
Format/Info : Audio Video Interleave
File size : 866 MiB
Duration : 1h 19mn
Overall bit rate : 1 516 Kbps
Video ID : 0
Format : MPEG-4 Visual
Format profile : Advanced Simple@L5
Format settings, BVOP : 2
Format settings, QPel : No
Format settings, GMC : No warppoints
Format settings, Matrix : Default (H.263)
Muxing mode : Packed bitstream
Codec ID : XVID
Codec ID/Hint : XviD
Duration : 1h 19mn
Bit rate : 1 058 Kbps
Width : 720 pixels
Height : 294 pixels
Display aspect ratio : 2.40:1
Frame rate : 25.000 fps
Color space : YUV
Chroma subsampling : 4:2:0
Bit depth : 8 bits
Scan type : Progressive
Compression mode : Lossy
Bits/(Pixel*Frame) : 0.200
Stream size : 604 MiB (70%)
Writing library : XviD 1.2.1 (UTC 2008-12-04)
Audio ID : 1
Format : AC-3
Format/Info : Audio Coding 3
Mode extension : CM (complete main)
Format settings, Endianness: Big
Codec ID : 2000
Duration : 1h 19mn
Bit rate mode : Constant
Bit rate : 448 Kbps
Channel(s) : 6 channels
Channel positions : Front: L C R, Side: L R, LFE
Sampling rate : 48.0 KHz
Bit depth : 16 bits
Compression mode : Lossy
Stream size : 256 MiB (30%)
Alignment : Aligned on interleaves
Interleave, duration : 32 ms (0.80 video frame)
Interleave, preload duration : 32 ms

